# xmcd
# 
# Track frame offsets:
#     150
#     19406
#     29851
#     48013
#     69721
#     93971
#     113081
#     129486
#     163683
#     178238
#     191576
#     204821
#     234613
#     251258
#     271048
# 
# Disc length: 3879
# 
# Revision: 2
# Processed by: cddbd v1.5.2PL0 Copyright (c) Steve Scherf et al.
# Submitted via: BonkEnc v1.0.8
# 
DISCID=cb0f250f
DTITLE=Various Artist - The Blues Anthology
DYEAR=1999
DGENRE=Blues
TTITLE0=Muddy Waters-Rollin' And Tumblin'
TTITLE1=King Biscuit Boy w. R. Hawkins Band-Step Back Baby
TTITLE2=Tommy Tucker-Hi Heel Sneakers
TTITLE3=Buster Benton and Carey Bell-Born With The Blues
TTITLE4=Buddy Guy and Junior Wells-Country Girl
TTITLE5=Sunnyland Slim- Soft And Mellow Stella
TTITLE6=Little Walter-Juke
TTITLE7=Albert Collins-I've Got A Mind To Travel
TTITLE8=Billy Boy Arnold w. Tony McPhee-I Wish You Would
TTITLE9=Mississippi Fred McDowell-I Asked For Whiskey, She Brought Me Gasoline
TTITLE10=Sonny Boy Williamson-Bye Bye Bird
TTITLE11=Eddie Clearwater-Come Up The Hard Way
TTITLE12=John Lee Hooker-Helpless Blues
TTITLE13=Fenton Robinson-Somebody Loan Me A Dime
TTITLE14=Earl Hooker-End Of The Blues
EXTD=YEAR: 1999
EXTT0=
EXTT1=
EXTT2=
EXTT3=
EXTT4=
EXTT5=
EXTT6=
EXTT7=
EXTT8=
EXTT9=
EXTT10=
EXTT11=
EXTT12=
EXTT13=
EXTT14=
PLAYORDER=
